<svg width="192" height="192" viewBox="0 0 192 192" fill="none" xmlns="http://www.w3.org/2000/svg">
  <!-- Tło kwadratowe -->
  <rect width="192" height="192" fill="#ffffff"/>
  <!-- Logo uWebs wyśrodkowane i przeskalowane -->
  <g transform="translate(16, 8) scale(0.77, 0.77)">
    <path d="M49.2188 136.544C49.2188 142.926 50.0348 148.867 51.666 154.365L51.3564 154.478L80.8389 236.541C69.6399 234.543 59.337 231.052 49.9316 226.064C34.2389 217.624 21.9937 205.794 13.1963 190.577C8.69544 182.792 5.34855 174.306 3.15039 165.12L49.2188 127.721V136.544ZM209 136.9C209 157.467 204.601 175.36 195.804 190.577C187.006 205.794 174.761 217.624 159.068 226.064C149.996 230.876 140.088 234.293 129.347 236.322L113.515 192.255C117.979 191.602 122.227 190.449 126.256 188.794C133.032 186.06 138.917 182.196 143.91 177.203C148.903 172.21 152.768 166.265 155.502 159.37C158.355 152.475 159.781 144.866 159.781 136.544V0H209V136.9ZM49.2188 68.8252L0 108.782V0H49.2188V68.8252Z" fill="#FF335F"/>
  </g>
</svg>