<?xml version="1.0" encoding="UTF-8"?>
<svg xmlns="http://www.w3.org/2000/svg" xmlns:xlink="http://www.w3.org/1999/xlink" width="192px" height="192px" viewBox="0 0 192 192" version="1.1">
<g id="surface1">
<path style=" stroke:none;fill-rule:nonzero;fill:rgb(100%,20%,37.254903%);fill-opacity:1;" d="M 45.214844 110.617188 C 45.214844 115.789062 45.964844 120.601562 47.464844 125.054688 L 47.179688 125.148438 L 74.261719 191.628906 C 63.976562 190.007812 54.511719 187.179688 45.871094 183.140625 C 31.453125 176.304688 20.203125 166.71875 12.121094 154.390625 C 7.988281 148.085938 4.914062 141.210938 2.894531 133.769531 L 45.214844 103.46875 Z M 192 110.90625 C 192 127.566406 187.957031 142.0625 179.878906 154.390625 C 171.796875 166.71875 160.546875 176.304688 146.128906 183.140625 C 137.796875 187.039062 128.691406 189.808594 118.824219 191.449219 L 104.28125 155.75 C 108.382812 155.222656 112.285156 154.289062 115.988281 152.945312 C 122.210938 150.730469 127.617188 147.601562 132.203125 143.558594 C 136.792969 139.511719 140.34375 134.695312 142.851562 129.109375 C 145.472656 123.523438 146.785156 117.359375 146.785156 110.617188 L 146.785156 0 L 192 0 Z M 45.214844 55.757812 L 0 88.128906 L 0 0 L 45.214844 0 Z M 45.214844 55.757812 "/>
</g>
</svg>
