<svg width="32" height="32" viewBox="0 0 32 32" fill="none" xmlns="http://www.w3.org/2000/svg">
  <!-- Background with gradient -->
  <defs>
    <linearGradient id="bg" x1="0%" y1="0%" x2="100%" y2="100%">
      <stop offset="0%" style="stop-color:#1e293b;stop-opacity:1" />
      <stop offset="100%" style="stop-color:#334155;stop-opacity:1" />
    </linearGradient>
  </defs>
  
  <rect width="32" height="32" rx="8" fill="url(#bg)"/>
  
  <!-- Letter "u" -->
  <path d="M6 9v7c0 2.76 2.24 5 5 5s5-2.24 5-5V9h2v7c0 3.87-3.13 7-7 7s-7-3.13-7-7V9h2z" fill="#ff3366"/>
  
  <!-- Letter "W" -->
  <path d="M17 9l1.8 10L20.5 9h1.8l1.8 10L26.5 9H28l-3 14h-1.8L21 13l-2.2 10H17L14 9h1.5l1.8 10L19.3 9H17z" fill="#00bcd4"/>
</svg>